<svg id="Layer_1" data-name="Layer 1" xmlns="http://www.w3.org/2000/svg" viewBox="0 0 512 512"><title>Dashboard Icons</title><path d="M312.43,199.61a119.38,119.38,0,0,0-168.9,0L34.93,308.21a119.47,119.47,0,0,0,168.9,169l89.6-89.6a8.56,8.56,0,0,0-6.1-14.6h-3.4a142,142,0,0,1-54.6-10.6,8.46,8.46,0,0,0-9.3,1.9l-64.4,64.5a51.19,51.19,0,1,1-72.4-72.4l109-108.9a51.06,51.06,0,0,1,72.3,0,34.87,34.87,0,0,0,47.9,0,33.74,33.74,0,0,0,0-47.9Z"/><path d="M477,35a119.44,119.44,0,0,0-169,0l-89.5,89.4a8.56,8.56,0,0,0,6.2,14.6h3.2a143.44,143.44,0,0,1,54.5,10.7,8.46,8.46,0,0,0,9.3-1.9L356,83.61a51.19,51.19,0,1,1,72.4,72.4l-80,79.9-.7.8-28,27.8a51.18,51.18,0,0,1-72.4,0,34.87,34.87,0,0,0-47.9,0,34,34,0,0,0,0,48.1,119.3,119.3,0,0,0,34.1,23.9c1.8.9,3.6,1.5,5.4,2.3s3.7,1.4,5.5,2,3.7,1.3,5.5,1.8l5,1.4c3.4.9,6.8,1.5,10.3,2.1,4.2.6,8.5,1,12.7,1.2h6.5l5.1-.6c1.9-.1,3.8-.5,6.1-.5h2.9l5.9-.9,2.7-.5,4.9-1h.9a119.59,119.59,0,0,0,55.4-31.4L477,203.91A119.5,119.5,0,0,0,477,35Z" style="fill:#4b5fea"/></svg>