<svg id="Layer_1" data-name="Layer 1" xmlns="http://www.w3.org/2000/svg" viewBox="0 0 512 512"><title>Dashboard Icons</title><path d="M503.4,231.4,425.8,148V51.8c0-17.4-13.1-31.5-29.3-31.5s-29.3,14.1-29.3,31.5V85L309.4,23C280.9-7.6,231.2-7.6,202.6,23L8.6,231.4a33.14,33.14,0,0,0,0,44.6,28,28,0,0,0,41.5,0l194-208.4a16.43,16.43,0,0,1,23.8,0l194,208.3a28.13,28.13,0,0,0,20.8,9.2,28.67,28.67,0,0,0,20.8-9.2C514.9,263.7,514.9,243.7,503.4,231.4Z"/><path d="M266.2,127.4a13.66,13.66,0,0,0-20.4,0L75.2,310.6a16.21,16.21,0,0,0-4.2,11V455.2c0,31.4,23.7,56.8,52.9,56.8h84.5V371.4h95.4V511.9h84.5c29.2,0,52.9-25.4,52.9-56.8V321.6a16.71,16.71,0,0,0-4.2-11Z"/></svg>