<svg id="Layer_1" data-name="Layer 1" xmlns="http://www.w3.org/2000/svg" viewBox="0 0 514 512"><title>Dashboard Icons</title><path d="M408.8,146.9c0,72.8-76.4,144.4-76.4,218.3H179.6c0-71.6-76.4-145.5-76.4-218.3C103.2,66.6,171.6,1.4,256,1.4S408.8,66.6,408.8,146.9Z" style="fill:#4b5fea"/><path d="M313.3,437.9H198.7c-10.6,0-19.1,8.1-19.1,18.2s8.6,18.2,19.1,18.2h3.6c7.8,21.2,28.8,36.3,53.7,36.3s45.9-15.2,53.8-36.3h3.4c10.6,0,19.1-8.1,19.1-18.2S323.8,437.9,313.3,437.9Z"/><path d="M313.3,383.3H198.7c-10.6,0-19.1,8.1-19.1,18.2s8.6,18.2,19.1,18.2H313.2c10.6,0,19.1-8.1,19.1-18.2S323.8,383.3,313.3,383.3Z"/></svg>