<svg id="Layer_1" data-name="Layer 1" xmlns="http://www.w3.org/2000/svg" viewBox="0 0 512 512"><title>Dashboard Icons</title><path d="M382,85H139.85a46.2,46.2,0,0,0-46.13,46.13V373.36a46.19,46.19,0,0,0,46.13,46.14H382a46.18,46.18,0,0,0,46.14-46.14V131.16A46.19,46.19,0,0,0,382,85Z" style="fill:#4b5fea"/><path d="M453.93,157.38h44.6a7.46,7.46,0,1,0,0-14.92h-44.6a7.46,7.46,0,0,0,0,14.92Z" style="fill:#010002"/><path d="M498.53,183.09h-44.6a7.46,7.46,0,0,0,0,14.92h44.6a7.46,7.46,0,1,0,0-14.92Z" style="fill:#010002"/><path d="M498.53,224.48h-44.6a7.47,7.47,0,0,0,0,14.94h44.6a7.47,7.47,0,1,0,0-14.94Z" style="fill:#010002"/><path d="M498.53,265.11h-44.6a7.46,7.46,0,0,0,0,14.93h44.6a7.46,7.46,0,1,0,0-14.93Z" style="fill:#010002"/><path d="M498.53,302.59h-44.6a7.45,7.45,0,1,0,0,14.9h44.6a7.45,7.45,0,1,0,0-14.9Z" style="fill:#010002"/><path d="M498.53,343.21h-44.6a7.45,7.45,0,1,0,0,14.9h44.6a7.45,7.45,0,1,0,0-14.9Z" style="fill:#010002"/><path d="M58.06,142.45H13.45a7.46,7.46,0,0,0,0,14.92H58.06a7.46,7.46,0,1,0,0-14.92Z" style="fill:#010002"/><path d="M58.06,183.09H13.45a7.46,7.46,0,0,0,0,14.92H58.06a7.46,7.46,0,1,0,0-14.92Z" style="fill:#010002"/><path d="M58.06,224.48H13.45a7.47,7.47,0,0,0,0,14.94H58.06a7.47,7.47,0,0,0,0-14.94Z" style="fill:#010002"/><path d="M58.06,265.11H13.45a7.46,7.46,0,0,0,0,14.93H58.06a7.46,7.46,0,0,0,0-14.93Z" style="fill:#010002"/><path d="M58.06,302.59H13.45a7.45,7.45,0,1,0,0,14.9H58.06a7.45,7.45,0,1,0,0-14.9Z" style="fill:#010002"/><path d="M58.06,343.21H13.45a7.45,7.45,0,1,0,0,14.9H58.06a7.45,7.45,0,1,0,0-14.9Z" style="fill:#010002"/><path d="M361.32,446.49a7.47,7.47,0,0,0-7.46,7.45v44.61a7.46,7.46,0,0,0,14.92,0V453.94A7.46,7.46,0,0,0,361.32,446.49Z" style="fill:#010002"/><path d="M320.69,446.49a7.46,7.46,0,0,0-7.43,7.45v44.61a7.45,7.45,0,1,0,14.9,0V453.94A7.47,7.47,0,0,0,320.69,446.49Z" style="fill:#010002"/><path d="M279.32,446.49a7.46,7.46,0,0,0-7.46,7.45v44.61a7.45,7.45,0,0,0,14.9,0V453.94A7.47,7.47,0,0,0,279.32,446.49Z" style="fill:#010002"/><path d="M238.69,446.49a7.48,7.48,0,0,0-7.47,7.45v44.61a7.46,7.46,0,0,0,14.91,0V453.94A7.45,7.45,0,0,0,238.69,446.49Z" style="fill:#010002"/><path d="M201.2,446.49a7.48,7.48,0,0,0-7.47,7.45v44.61a7.46,7.46,0,0,0,14.91,0V453.94A7.46,7.46,0,0,0,201.2,446.49Z" style="fill:#010002"/><path d="M160.59,446.49a7.46,7.46,0,0,0-7.47,7.45v44.61a7.46,7.46,0,0,0,14.91,0V453.94A7.45,7.45,0,0,0,160.59,446.49Z" style="fill:#010002"/><path d="M361.32,65.49a7.46,7.46,0,0,0,7.46-7.42V13.45a7.46,7.46,0,0,0-14.92,0V58.08A7.46,7.46,0,0,0,361.32,65.49Z" style="fill:#010002"/><path d="M320.69,65.49a7.46,7.46,0,0,0,7.47-7.42V13.45a7.45,7.45,0,1,0-14.9,0V58.08A7.44,7.44,0,0,0,320.69,65.49Z" style="fill:#010002"/><path d="M279.32,65.49a7.45,7.45,0,0,0,7.44-7.42V13.45a7.45,7.45,0,1,0-14.9,0V58.08A7.44,7.44,0,0,0,279.32,65.49Z" style="fill:#010002"/><path d="M238.69,65.49a7.44,7.44,0,0,0,7.44-7.42V13.45a7.46,7.46,0,0,0-14.91,0V58.08A7.46,7.46,0,0,0,238.69,65.49Z" style="fill:#010002"/><path d="M201.2,65.49a7.44,7.44,0,0,0,7.44-7.42V13.45a7.46,7.46,0,0,0-14.91,0V58.08A7.46,7.46,0,0,0,201.2,65.49Z" style="fill:#010002"/><path d="M160.59,65.49A7.44,7.44,0,0,0,168,58.07V13.45a7.46,7.46,0,0,0-14.91,0V58.08A7.45,7.45,0,0,0,160.59,65.49Z" style="fill:#010002"/></svg>