<svg id="Layer_1" data-name="Layer 1" xmlns="http://www.w3.org/2000/svg" viewBox="0 0 512 512"><title>Dashboard Icons</title><path d="M278.9,290.9c-7.7.2-15.3.4-22.9.4s-15.3-.1-23-.4C168.4,289.2,117,280,79.9,267c-17.4-5.9-32.3-12.8-43.8-20.7V329c25,26.1,109,50.2,219.9,50.2S450.9,355.1,475.9,329V246.3c-11.6,8-26.6,14.9-44.2,20.8C394.7,280.1,343.3,289.2,278.9,290.9Z"/><path d="M36.1,131v82.7c23.2,24.2,97.1,46.7,196.1,49.9,1,0,2,0,3.1.1,2.9.1,5.7.2,8.6.2,4,.1,8.1.1,12.2.1s8.1,0,12.2-.1c2.9,0,5.8-.1,8.6-.2,1,0,2.1,0,3.1-.1,99-3.2,172.8-25.6,196.1-49.9V131c-42.8,29.4-133.3,45-219.9,45S78.9,160.4,36.1,131Z"/><path d="M474.7,75.1C464.9,37.3,389,0,256,0,123.4,0,47.5,37.1,37.4,74.9a9,9,0,0,0-1.3,4.3V99.5c25,26,108.4,50.1,219.9,50.1s195-24,219.9-50.1V79.2A8.49,8.49,0,0,0,474.7,75.1Z"/><path d="M36.1,360.7v72.1a9.1,9.1,0,0,0,1,4C47.5,479.9,140.4,512,256,512c115.3,0,208.1-32,218.8-74.9a8.86,8.86,0,0,0,1.1-4.3V360.7c-36.4,25.6-111.3,45.7-219.9,45.7S72.4,386.3,36.1,360.7Z"/></svg>