<svg id="Layer_1" data-name="Layer 1" xmlns="http://www.w3.org/2000/svg" viewBox="0 0 1002.3 182.18"><title>Cloud Logo</title><path d="M280.14,121.14a27.85,27.85,0,0,1-3.56,3.7,25.88,25.88,0,0,1-5.87,3.78,41.74,41.74,0,0,1-8.62,2.95,51.61,51.61,0,0,1-11.82,1.2,36.49,36.49,0,0,1-14-2.61,30.29,30.29,0,0,1-10.93-7.56,34.54,34.54,0,0,1-7.09-12.18,49.85,49.85,0,0,1-2.53-16.52V88.55A55,55,0,0,1,218,72.06a34.5,34.5,0,0,1,6.56-12.26A27.86,27.86,0,0,1,235,52.17a35.66,35.66,0,0,1,14-2.61A39.23,39.23,0,0,1,262,51.48a26.56,26.56,0,0,1,9.29,5.37,25,25,0,0,1,6,8.2,35.91,35.91,0,0,1,2.89,10.43H266.3a23.75,23.75,0,0,0-1.67-5.84,14.23,14.23,0,0,0-3.2-4.62,14.43,14.43,0,0,0-5-3.06,20.27,20.27,0,0,0-7.09-1.11,18.87,18.87,0,0,0-8.59,1.84,16,16,0,0,0-6.06,5.37,25.39,25.39,0,0,0-3.62,8.68,51.91,51.91,0,0,0-1.2,11.71v5.45a43.77,43.77,0,0,0,1.45,11.82,25.18,25.18,0,0,0,4.14,8.65A17.87,17.87,0,0,0,242,119.7a20.16,20.16,0,0,0,8.76,1.84,35,35,0,0,0,6.2-.47,22.4,22.4,0,0,0,4.37-1.2,12.87,12.87,0,0,0,2.92-1.58,14.43,14.43,0,0,0,1.86-1.64V100.79H249.44V90.11h30.7Z" style="fill:#fff"/><path d="M325.81,83.82q-1.34-.22-2.7-.33t-2.81-.11a15,15,0,0,0-8,1.89,11.59,11.59,0,0,0-4.56,5.23v41.16H294.27V71.47h12.9l.33,6.73a17.47,17.47,0,0,1,5.65-5.76,14.74,14.74,0,0,1,7.93-2.09,15.94,15.94,0,0,1,2.64.25,10.77,10.77,0,0,1,2.14.53Z" style="fill:#fff"/><path d="M368.64,131.66a11.17,11.17,0,0,1-.92-2.5q-.36-1.45-.64-3.12a23.86,23.86,0,0,1-3,2.61,20.38,20.38,0,0,1-3.62,2.14,21.54,21.54,0,0,1-4.28,1.45,22.07,22.07,0,0,1-4.92.53,24.29,24.29,0,0,1-8.29-1.36,19.45,19.45,0,0,1-6.48-3.78,17.51,17.51,0,0,1-4.23-5.7,16.63,16.63,0,0,1-1.53-7.12,19.15,19.15,0,0,1,1.84-8.57,16.58,16.58,0,0,1,5.34-6.23,25.59,25.59,0,0,1,8.59-3.81,46.78,46.78,0,0,1,11.6-1.31h8.51V90.94A10.54,10.54,0,0,0,364,83.46q-2.61-2.81-8-2.81a13.86,13.86,0,0,0-4.34.64A10.54,10.54,0,0,0,348.42,83a7.65,7.65,0,0,0-2.11,2.59,7.12,7.12,0,0,0-.75,3.23H332A14.5,14.5,0,0,1,333.79,82a18.89,18.89,0,0,1,5-5.9,25.44,25.44,0,0,1,7.81-4.14,34.33,34.33,0,0,1,19.61-.25,21.06,21.06,0,0,1,7.4,3.89A17.54,17.54,0,0,1,378.43,82a22,22,0,0,1,1.72,9v26.7q0,8.12,2.28,13v.95Zm-14.85-9.73a15.06,15.06,0,0,0,4.37-.61,15.69,15.69,0,0,0,3.67-1.61,13.6,13.6,0,0,0,2.86-2.31,12.87,12.87,0,0,0,1.95-2.64V103.4h-7.29q-7.51,0-11.29,2.61a8.47,8.47,0,0,0-3.78,7.4,9.18,9.18,0,0,0,.61,3.39,7.26,7.26,0,0,0,1.84,2.7,8.63,8.63,0,0,0,3,1.78A11.9,11.9,0,0,0,353.79,121.92Z" style="fill:#fff"/><path d="M406.85,71.47l.39,7a22.05,22.05,0,0,1,7.62-6,22.79,22.79,0,0,1,9.9-2.11,24.45,24.45,0,0,1,7.87,1.2,14.53,14.53,0,0,1,6,3.87,18,18,0,0,1,3.87,7,34.62,34.62,0,0,1,1.36,10.4v38.88H430.38v-39a17.2,17.2,0,0,0-.7-5.26,8.56,8.56,0,0,0-2-3.48A7.66,7.66,0,0,0,424.34,82a16,16,0,0,0-4.53-.58,13,13,0,0,0-7.26,2,14.56,14.56,0,0,0-4.92,5.4v42.83H394.11V71.47Z" style="fill:#fff"/><path d="M455.13,101.12a45,45,0,0,1,1.64-12.51,29.39,29.39,0,0,1,4.73-9.73,21.05,21.05,0,0,1,17.38-8.51,21.2,21.2,0,0,1,8.82,1.72,19.45,19.45,0,0,1,6.65,5V46.22h13.52v85.43H495.62l-.67-6.23a20.24,20.24,0,0,1-6.87,5.42,21.22,21.22,0,0,1-9.32,1.92,20.67,20.67,0,0,1-9.82-2.31,22.18,22.18,0,0,1-7.42-6.37,30.24,30.24,0,0,1-4.73-9.65,42.33,42.33,0,0,1-1.67-12.15Zm13.52,1.17a36.17,36.17,0,0,0,.75,7.54,19.44,19.44,0,0,0,2.39,6.2,12.28,12.28,0,0,0,4.2,4.2,11.94,11.94,0,0,0,6.23,1.53,12.82,12.82,0,0,0,7.48-2,14.54,14.54,0,0,0,4.64-5.37V88.66a13.77,13.77,0,0,0-4.67-5.28,13,13,0,0,0-7.34-1.95A11.92,11.92,0,0,0,476.07,83a12.45,12.45,0,0,0-4.23,4.23,19.9,19.9,0,0,0-2.42,6.26,36,36,0,0,0-.78,7.65Z" style="fill:#fff"/><path d="M548.46,132.77a31,31,0,0,1-12-2.22,26.44,26.44,0,0,1-9.07-6.12,26.78,26.78,0,0,1-5.73-9.23,32.52,32.52,0,0,1-2-11.51v-2.22a37.12,37.12,0,0,1,2.11-12.88,29.39,29.39,0,0,1,5.78-9.79,25.5,25.5,0,0,1,8.65-6.23,26.22,26.22,0,0,1,10.71-2.2,27.39,27.39,0,0,1,11.4,2.2,21.49,21.49,0,0,1,8,6.15,26.42,26.42,0,0,1,4.73,9.4,43.47,43.47,0,0,1,1.56,12v5.78H533.28a21.56,21.56,0,0,0,1.47,6.45,15.84,15.84,0,0,0,3.25,5.09,14.94,14.94,0,0,0,4.87,3.37,15.8,15.8,0,0,0,6.37,1.22,18,18,0,0,0,8.7-2,20.41,20.41,0,0,0,6.42-5.51l7.29,7a24.69,24.69,0,0,1-3.59,4.2,24.34,24.34,0,0,1-5,3.62,28.74,28.74,0,0,1-6.48,2.56A31.28,31.28,0,0,1,548.46,132.77Zm-1.61-51.56a11.38,11.38,0,0,0-9,3.89Q534.44,89,533.5,95.95h25.75v-1a24.72,24.72,0,0,0-.86-5.15,13.13,13.13,0,0,0-2.14-4.39,10.37,10.37,0,0,0-3.75-3.06A12.67,12.67,0,0,0,546.85,81.21Z" style="fill:#fff"/><path d="M619.54,125.76a19.21,19.21,0,0,1-7,5.17,24.45,24.45,0,0,1-9.9,1.83,24.79,24.79,0,0,1-8.09-1.25,15.68,15.68,0,0,1-6.26-3.95,18.25,18.25,0,0,1-4.06-7,31.84,31.84,0,0,1-1.45-10.21V71.47h13.52v39a16.05,16.05,0,0,0,.78,5.42,9.27,9.27,0,0,0,2.09,3.45,7.22,7.22,0,0,0,3,1.84,12.26,12.26,0,0,0,3.62.53,16.59,16.59,0,0,0,8.46-1.89,12.06,12.06,0,0,0,4.84-5.17V71.47h13.52v60.18H619.88Z" style="fill:#fff"/><path d="M677.89,83.82q-1.33-.22-2.7-.33t-2.81-.11a15,15,0,0,0-8,1.89,11.59,11.59,0,0,0-4.56,5.23v41.16H646.35V71.47h12.9l.33,6.73a17.47,17.47,0,0,1,5.65-5.76,14.73,14.73,0,0,1,7.93-2.09,16,16,0,0,1,2.64.25,10.77,10.77,0,0,1,2.14.53Z" style="fill:#fff"/><path d="M776.84,106q-1.5,12.85-9.48,19.83t-21.22,7q-14.35,0-23-10.29t-8.65-27.53V87.16a46.14,46.14,0,0,1,4-19.86A30.12,30.12,0,0,1,730,54.15a31.83,31.83,0,0,1,17.13-4.59q12.9,0,20.69,7.2t9.07,19.94H766.11q-1.39-9.71-6-14.06t-13-4.35q-10.23,0-16,7.57t-5.81,21.54v7.85q0,13.19,5.51,21T746.14,124q8.9,0,13.65-4t6.31-14Z" style="fill:#fff"/><path d="M801,131.66H790.69V46.22H801Z" style="fill:#fff"/><path d="M814.72,101a35.54,35.54,0,0,1,3.48-15.91,25.93,25.93,0,0,1,9.68-10.9A26.34,26.34,0,0,1,842,70.36q12.29,0,19.88,8.51t7.59,22.64v.72A35.85,35.85,0,0,1,866.14,118a25.55,25.55,0,0,1-9.62,10.87,26.64,26.64,0,0,1-14.38,3.89q-12.24,0-19.83-8.51t-7.59-22.53Zm10.35,1.22q0,10,4.64,16.08a15.74,15.74,0,0,0,24.89-.08q4.62-6.15,4.62-17.21,0-9.9-4.7-16A14.94,14.94,0,0,0,842,78.82a14.78,14.78,0,0,0-12.29,6.06Q825.06,90.94,825.06,102.23Z" style="fill:#fff"/><path d="M919.56,125.71q-6,7.06-17.63,7.06-9.62,0-14.66-5.59t-5.09-16.55V71.47h10.29v38.88q0,13.68,11.12,13.68,11.79,0,15.69-8.79V71.47h10.29v60.18h-9.79Z" style="fill:#fff"/><path d="M942.7,101.06q0-13.85,6.56-22.28a20.75,20.75,0,0,1,17.19-8.43q10.57,0,16.74,7.23V46.22h10.29v85.43H984l-.5-6.45q-6.17,7.56-17.19,7.56a20.55,20.55,0,0,1-17-8.57q-6.59-8.56-6.59-22.36ZM953,102.23q0,10.23,4.23,16A13.66,13.66,0,0,0,968.9,124q9.79,0,14.29-8.79V87.6q-4.62-8.51-14.18-8.51a13.73,13.73,0,0,0-11.79,5.84Q953,90.78,953,102.23Z" style="fill:#fff"/><path d="M91.21-.41A91.29,91.29,0,0,0,0,90.8c0,50.43,41,91,91.21,91a91.29,91.29,0,0,0,91.21-91.21C182.42,40.13,141.4-.41,91.21-.41Zm32,122.94H54.6a22.37,22.37,0,0,1-3.49-44.43,14.26,14.26,0,0,1-.21-2.42A14.11,14.11,0,0,1,65,61.51a13.91,13.91,0,0,1,9.09,3.36c4.37-9.91,10-19,25.66-19,19,0,28.06,14.8,28.06,30.41,0,.65,0,1.3-.07,1.94a22.37,22.37,0,0,1-4.45,44.26Z" style="fill:#fff"/></svg>