<svg id="Layer_1" data-name="Layer 1" xmlns="http://www.w3.org/2000/svg" viewBox="0 0 512 512"><title>Dashboard Icons</title><path d="M485.8,202.3l-35.9-6.1a208.41,208.41,0,0,0-14.4-34.9l21.2-29.6a31.61,31.61,0,0,0-3.4-40.8L421.3,59a31.39,31.39,0,0,0-22.4-9.3,31,31,0,0,0-18.3,5.9L350.9,76.8a204.19,204.19,0,0,0-36.2-14.9l-6-35.5A31.39,31.39,0,0,0,277.6,0h-45a31.5,31.5,0,0,0-31.2,26.4l-6.2,36.4a196.22,196.22,0,0,0-34.8,14.7L131,56.3a31,31,0,0,0-18.4-5.9,31.39,31.39,0,0,0-22.4,9.3l-32,31.9a31.71,31.71,0,0,0-3.4,40.8l21.4,30.1a193,193,0,0,0-14.2,35l-35.5,6A31.24,31.24,0,0,0,0,234.6v45a31.5,31.5,0,0,0,26.4,31.2L62.8,317a196.22,196.22,0,0,0,14.7,34.8L56.4,381.1a31.61,31.61,0,0,0,3.4,40.8l31.9,31.9a31.39,31.39,0,0,0,22.4,9.3,31,31,0,0,0,18.3-5.9l30.1-21.4a195.32,195.32,0,0,0,33.8,13.9l6,35.9A31.57,31.57,0,0,0,233.5,512h45.1a31.5,31.5,0,0,0,31.2-26.4l6.1-35.9a208.4,208.4,0,0,0,34.9-14.4l29.6,21.2a31,31,0,0,0,18.4,5.9,31.56,31.56,0,0,0,22.4-9.3l31.9-31.9a31.71,31.71,0,0,0,3.4-40.8l-21.2-29.7a195.88,195.88,0,0,0,14.4-34.9l35.9-6A31.58,31.58,0,0,0,512,278.6v-45A31.17,31.17,0,0,0,485.8,202.3ZM256.1,366.4A110.5,110.5,0,1,1,366.5,255.9,110.54,110.54,0,0,1,256.1,366.4Z"/><path d="M256.1,174.3a81.6,81.6,0,1,0,81.6,81.6A81.69,81.69,0,0,0,256.1,174.3Z"/></svg>